<svg width="134" height="26" viewBox="0 0 134 26" fill="none" xmlns="http://www.w3.org/2000/svg">
<path d="M7.344 20.224C5.888 20.224 4.60933 19.9813 3.508 19.496C2.40667 19.0107 1.55733 18.3293 0.96 17.452C0.362667 16.5747 0.0640001 15.548 0.0640001 14.372V13.896C0.0640001 13.5787 0.222667 13.42 0.54 13.42H3.48C3.79733 13.42 3.956 13.5413 3.956 13.784V14.176C3.956 14.9227 4.292 15.5573 4.964 16.08C5.65467 16.584 6.55067 16.836 7.652 16.836C8.64133 16.836 9.36933 16.6307 9.836 16.22C10.3213 15.7907 10.564 15.268 10.564 14.652C10.564 14.204 10.4147 13.8307 10.116 13.532C9.81733 13.2147 9.416 12.944 8.912 12.72C8.408 12.4773 7.596 12.1507 6.476 11.74C5.20667 11.3107 4.14267 10.872 3.284 10.424C2.42533 9.976 1.69733 9.36933 1.1 8.604C0.502667 7.82 0.204 6.85867 0.204 5.72C0.204 4.6 0.493333 3.62 1.072 2.78C1.65067 1.94 2.45333 1.296 3.48 0.848C4.52533 0.4 5.71067 0.176 7.036 0.176C8.45467 0.176 9.724 0.427999 10.844 0.931998C11.964 1.436 12.832 2.14533 13.448 3.06C14.0827 3.956 14.4 5.00133 14.4 6.196V6.476C14.4 6.79333 14.2413 6.952 13.924 6.952H10.984C10.6667 6.952 10.508 6.85867 10.508 6.672V6.392C10.508 5.608 10.1813 4.94533 9.528 4.404C8.89333 3.844 8.016 3.564 6.896 3.564C6 3.564 5.30933 3.75067 4.824 4.124C4.33867 4.49733 4.096 5.01067 4.096 5.664C4.096 6.13067 4.236 6.52267 4.516 6.84C4.796 7.15733 5.216 7.44667 5.776 7.708C6.35467 7.96933 7.24133 8.30533 8.436 8.716C9.74267 9.20133 10.7787 9.63067 11.544 10.004C12.3093 10.3587 12.9907 10.9093 13.588 11.656C14.204 12.4027 14.512 13.364 14.512 14.54C14.512 15.6787 14.2133 16.6773 13.616 17.536C13.0373 18.3947 12.2067 19.0573 11.124 19.524C10.06 19.9907 8.8 20.224 7.344 20.224ZM29.9063 9.5C30.2236 10.396 30.3823 11.516 30.3823 12.86C30.3823 14.2413 30.205 15.3987 29.8503 16.332C29.4396 17.5267 28.7583 18.4787 27.8063 19.188C26.873 19.8973 25.7716 20.252 24.5023 20.252C23.121 20.252 22.057 19.7947 21.3103 18.88C21.273 18.824 21.2263 18.8053 21.1703 18.824C21.133 18.8427 21.1143 18.8893 21.1143 18.964V24.732C21.1143 25.0493 20.9556 25.208 20.6383 25.208H17.6423C17.325 25.208 17.1663 25.0493 17.1663 24.732V6.084C17.1663 5.76667 17.325 5.608 17.6423 5.608H20.6383C20.9556 5.608 21.1143 5.76667 21.1143 6.084V6.84C21.1143 6.91467 21.133 6.96133 21.1703 6.98C21.2263 6.98 21.273 6.952 21.3103 6.896C22.0756 5.888 23.1396 5.384 24.5023 5.384C25.7716 5.384 26.8916 5.76667 27.8623 6.532C28.8516 7.27867 29.533 8.268 29.9063 9.5ZM25.5663 15.716C26.0143 14.9693 26.2383 13.9893 26.2383 12.776C26.2383 11.6747 26.0423 10.76 25.6503 10.032C25.2023 9.22933 24.521 8.828 23.6063 8.828C22.785 8.828 22.1503 9.22933 21.7023 10.032C21.329 10.7227 21.1423 11.6467 21.1423 12.804C21.1423 14.0173 21.3383 14.9787 21.7303 15.688C22.197 16.416 22.8223 16.78 23.6063 16.78C24.465 16.78 25.1183 16.4253 25.5663 15.716ZM39.0509 20.224C37.4643 20.224 36.1109 19.8133 34.9909 18.992C33.8709 18.1707 33.1056 17.0507 32.6949 15.632C32.4336 14.7547 32.3029 13.8027 32.3029 12.776C32.3029 11.6373 32.4429 10.648 32.7229 9.808C33.1523 8.42667 33.9176 7.344 35.0189 6.56C36.1389 5.776 37.4923 5.384 39.0789 5.384C40.6096 5.384 41.9163 5.776 42.9989 6.56C44.1003 7.344 44.8656 8.41733 45.2949 9.78C45.5749 10.6387 45.7149 11.6187 45.7149 12.72C45.7149 13.6907 45.5936 14.6333 45.3509 15.548C44.9216 17.004 44.1469 18.152 43.0269 18.992C41.9256 19.8133 40.6003 20.224 39.0509 20.224ZM39.0509 16.836C39.6483 16.836 40.1616 16.6493 40.5909 16.276C41.0203 15.9027 41.3283 15.3893 41.5149 14.736C41.6643 14.232 41.7389 13.5787 41.7389 12.776C41.7389 11.992 41.6643 11.3293 41.5149 10.788C41.3283 10.1533 41.0203 9.65867 40.5909 9.304C40.1616 8.94933 39.6296 8.772 38.9949 8.772C38.3789 8.772 37.8563 8.94933 37.4269 9.304C36.9976 9.65867 36.6896 10.1533 36.5029 10.788C36.3536 11.3293 36.2789 11.992 36.2789 12.776C36.2789 13.5413 36.3536 14.1947 36.5029 14.736C36.6896 15.3893 36.9976 15.9027 37.4269 16.276C37.8749 16.6493 38.4163 16.836 39.0509 16.836ZM55.4209 5.412C56.0182 5.412 56.5129 5.524 56.9049 5.748C57.1289 5.86 57.2129 6.056 57.1569 6.336L56.6249 9.276C56.6062 9.444 56.5502 9.54667 56.4569 9.584C56.3822 9.62133 56.2515 9.62133 56.0649 9.584C55.7662 9.50933 55.4955 9.472 55.2529 9.472C55.1222 9.472 54.9075 9.49067 54.6089 9.528C53.9369 9.584 53.3675 9.836 52.9009 10.284C52.4342 10.7133 52.2009 11.292 52.2009 12.02V19.524C52.2009 19.8413 52.0422 20 51.7249 20H48.7289C48.4115 20 48.2529 19.8413 48.2529 19.524V6.084C48.2529 5.76667 48.4115 5.608 48.7289 5.608H51.7249C52.0422 5.608 52.2009 5.76667 52.2009 6.084V6.952C52.2009 7.02667 52.2195 7.07333 52.2569 7.092C52.2942 7.11067 52.3409 7.092 52.3969 7.036C53.1435 5.95333 54.1515 5.412 55.4209 5.412ZM67.3957 8.296C67.3957 8.61333 67.237 8.772 66.9197 8.772H64.3997C64.2877 8.772 64.2317 8.828 64.2317 8.94V14.736C64.2317 15.352 64.353 15.8093 64.5957 16.108C64.857 16.388 65.2677 16.528 65.8277 16.528H66.6117C66.929 16.528 67.0877 16.6867 67.0877 17.004V19.412C67.0877 19.7107 66.929 19.8787 66.6117 19.916C65.9024 19.9533 65.389 19.972 65.0717 19.972C63.5224 19.972 62.365 19.7107 61.5997 19.188C60.8344 18.6653 60.4424 17.6947 60.4237 16.276V8.94C60.4237 8.828 60.3677 8.772 60.2557 8.772H58.8277C58.5104 8.772 58.3517 8.61333 58.3517 8.296V6.084C58.3517 5.76667 58.5104 5.608 58.8277 5.608H60.2557C60.3677 5.608 60.4237 5.552 60.4237 5.44V2.276C60.4237 1.95867 60.5824 1.8 60.8997 1.8H63.7557C64.073 1.8 64.2317 1.95867 64.2317 2.276V5.44C64.2317 5.552 64.2877 5.608 64.3997 5.608H66.9197C67.237 5.608 67.3957 5.76667 67.3957 6.084V8.296ZM75.5124 20.196C74.2617 20.196 73.1697 20.0187 72.2364 19.664C71.3031 19.3093 70.5844 18.8147 70.0804 18.18C69.5764 17.5453 69.3244 16.8267 69.3244 16.024V15.884C69.3244 15.5667 69.4831 15.408 69.8004 15.408H72.6284C72.9457 15.408 73.1044 15.464 73.1044 15.576V15.772C73.1044 16.1827 73.3284 16.5373 73.7764 16.836C74.2244 17.116 74.7937 17.256 75.4844 17.256C76.1191 17.256 76.6324 17.1347 77.0244 16.892C77.4164 16.6493 77.6124 16.332 77.6124 15.94C77.6124 15.604 77.4444 15.352 77.1084 15.184C76.7724 15.016 76.2217 14.8387 75.4564 14.652C74.5417 14.4093 73.8604 14.1947 73.4124 14.008C72.1991 13.5973 71.2377 13.0933 70.5284 12.496C69.8191 11.8987 69.4644 11.04 69.4644 9.92C69.4644 8.53867 70.0057 7.44667 71.0884 6.644C72.1711 5.82267 73.5897 5.412 75.3444 5.412C76.5391 5.412 77.5844 5.608 78.4804 6C79.3951 6.37333 80.0951 6.90533 80.5804 7.596C81.0844 8.28667 81.3364 9.07067 81.3364 9.948C81.3364 10.0413 81.2897 10.1253 81.1964 10.2C81.1217 10.256 81.0097 10.284 80.8604 10.284H78.1164C77.7991 10.284 77.6404 10.228 77.6404 10.116V9.948C77.6404 9.53733 77.4351 9.192 77.0244 8.912C76.6137 8.632 76.0631 8.492 75.3724 8.492C74.7564 8.492 74.2431 8.604 73.8324 8.828C73.4404 9.052 73.2444 9.36 73.2444 9.752C73.2444 10.1253 73.4311 10.4053 73.8044 10.592C74.1964 10.7787 74.8311 10.9747 75.7084 11.18C76.2497 11.292 76.7724 11.432 77.2764 11.6C78.6204 11.992 79.6751 12.496 80.4404 13.112C81.2057 13.728 81.5884 14.624 81.5884 15.8C81.5884 17.1813 81.0377 18.264 79.9364 19.048C78.8351 19.8133 77.3604 20.196 75.5124 20.196Z" fill="#121521"/>
<path d="M97.4904 0.399999C97.8078 0.399999 97.9664 0.558666 97.9664 0.875999V3.34C97.9664 3.65733 97.8078 3.816 97.4904 3.816H92.6464C92.5344 3.816 92.4784 3.872 92.4784 3.984V19.524C92.4784 19.8413 92.3198 20 92.0024 20H89.0064C88.6891 20 88.5304 19.8413 88.5304 19.524V3.984C88.5304 3.872 88.4744 3.816 88.3624 3.816H83.6584C83.3411 3.816 83.1824 3.65733 83.1824 3.34V0.875999C83.1824 0.558666 83.3411 0.399999 83.6584 0.399999H97.4904ZM104.99 5.384C106.203 5.384 107.286 5.59867 108.238 6.028C109.19 6.43867 109.927 7.008 110.45 7.736C110.991 8.464 111.262 9.276 111.262 10.172V19.524C111.262 19.8413 111.103 20 110.786 20H107.79C107.472 20 107.314 19.8413 107.314 19.524V18.852C107.314 18.7773 107.295 18.74 107.258 18.74C107.22 18.7213 107.174 18.74 107.118 18.796C106.259 19.748 104.98 20.224 103.282 20.224C101.844 20.224 100.687 19.8693 99.8096 19.16C98.9323 18.4507 98.4936 17.4053 98.4936 16.024C98.4936 14.5867 98.9976 13.476 100.006 12.692C101.014 11.8893 102.451 11.488 104.318 11.488H107.146C107.258 11.488 107.314 11.432 107.314 11.32V10.732C107.314 10.116 107.118 9.64 106.726 9.304C106.352 8.94933 105.802 8.772 105.074 8.772C104.514 8.772 104.047 8.86533 103.674 9.052C103.319 9.23867 103.076 9.5 102.946 9.836C102.834 10.0973 102.647 10.2187 102.386 10.2L99.2776 9.808C99.1283 9.78933 99.007 9.752 98.9136 9.696C98.839 9.62133 98.811 9.528 98.8296 9.416C98.923 8.65067 99.2403 7.96 99.7816 7.344C100.342 6.728 101.07 6.252 101.966 5.916C102.88 5.56133 103.888 5.384 104.99 5.384ZM104.43 17.284C105.232 17.284 105.914 17.0693 106.474 16.64C107.034 16.2107 107.314 15.66 107.314 14.988V14.008C107.314 13.896 107.258 13.84 107.146 13.84H105.158C104.318 13.84 103.655 13.9987 103.17 14.316C102.684 14.6333 102.442 15.0813 102.442 15.66C102.442 16.164 102.619 16.5653 102.974 16.864C103.347 17.144 103.832 17.284 104.43 17.284ZM114.547 20C114.229 20 114.071 19.8413 114.071 19.524V0.875999C114.071 0.558666 114.229 0.399999 114.547 0.399999H117.543C117.86 0.399999 118.019 0.558666 118.019 0.875999V19.524C118.019 19.8413 117.86 20 117.543 20H114.547ZM121.518 20C121.201 20 121.042 19.8413 121.042 19.524V0.875999C121.042 0.558666 121.201 0.399999 121.518 0.399999H124.514C124.831 0.399999 124.99 0.558666 124.99 0.875999V10.116C124.99 10.1907 125.009 10.2373 125.046 10.256C125.102 10.256 125.149 10.228 125.186 10.172L128.91 5.888C129.097 5.70133 129.293 5.608 129.498 5.608H132.886C133.017 5.608 133.119 5.636 133.194 5.692C133.269 5.72933 133.306 5.79467 133.306 5.888C133.306 6 133.269 6.10267 133.194 6.196L129.75 10.508C129.694 10.564 129.685 10.6387 129.722 10.732L133.838 19.44L133.894 19.664C133.894 19.888 133.754 20 133.474 20H130.31C130.049 20 129.862 19.8787 129.75 19.636L127.034 13.224C126.978 13.112 126.903 13.1027 126.81 13.196L125.074 15.408C125.018 15.4827 124.99 15.548 124.99 15.604V19.524C124.99 19.8413 124.831 20 124.514 20H121.518Z" fill="#F6423F"/>
</svg>
